HIERARCHY
ROOT Hips
{
	OFFSET 0.000000 0.000000 0.000000
	CHANNELS 6 Xposition Yposition Zposition Xrotation Yrotation Zrotation
	JOINT LeftUpLeg_virtual
	{
		OFFSET 0.000000 0.000000 0.000000
		CHANNELS 3 Xrotation Yrotation Zrotation
		JOINT LeftUpLeg
		{
			OFFSET 11.394100 -6.187798 -0.413800
			CHANNELS 3 Xrotation Yrotation Zrotation
			JOINT LeftLeg
			{
				OFFSET 0.430247 -32.302673 3.732800
				CHANNELS 3 Xrotation Yrotation Zrotation
				JOINT LeftFoot
				{
					OFFSET -0.430247 -48.264931 -6.423300
					CHANNELS 3 Xrotation Yrotation Zrotation
					JOINT LeftToeBase
					{
						OFFSET 4.230900 -16.068199 23.438400
						CHANNELS 3 Xrotation Yrotation Zrotation
						JOINT LeftToe_End
						{
							OFFSET 4.510700 0.695400 19.974600
							CHANNELS 3 Xrotation Yrotation Zrotation
							End Site
							{
								OFFSET 0 0 0
							}
						}
					}
				}
			}
		}
	}
	JOINT RightUpLeg_virtual
	{
		OFFSET 0.000000 0.000000 0.000000
		CHANNELS 3 Xrotation Yrotation Zrotation
		JOINT RightUpLeg
		{
			OFFSET -11.333700 -6.187798 -0.413800
			CHANNELS 3 Xrotation Yrotation Zrotation
			JOINT RightLeg
			{
				OFFSET -0.430392 -32.302628 3.733000
				CHANNELS 3 Xrotation Yrotation Zrotation
				JOINT RightFoot
				{
					OFFSET 0.430392 -48.264973 -6.423500
					CHANNELS 3 Xrotation Yrotation Zrotation
					JOINT RightToeBase
					{
						OFFSET -4.230900 -16.068199 23.438400
						CHANNELS 3 Xrotation Yrotation Zrotation
						JOINT RightToe_End
						{
							OFFSET -4.510700 0.695400 19.974600
							CHANNELS 3 Xrotation Yrotation Zrotation
							End Site
							{
								OFFSET 0 0 0
							}
						}
					}
				}
			}
		}
	}
	JOINT Spine_virtual
	{
		OFFSET 0.000000 0.000000 0.000000
		CHANNELS 3 Xrotation Yrotation Zrotation
		JOINT Spine
		{
			OFFSET -0.002400 12.777504 0.315300
			CHANNELS 3 Xrotation Yrotation Zrotation
			JOINT Spine1
			{
				OFFSET -0.002067 5.816869 0.032633
				CHANNELS 3 Xrotation Yrotation Zrotation
				JOINT Spine1_split
				{
					OFFSET -0.002067 5.816869 0.032633
					CHANNELS 3 Xrotation Yrotation Zrotation
					JOINT Spine2
					{
						OFFSET -0.002067 5.816869 0.032633
						CHANNELS 3 Xrotation Yrotation Zrotation
						JOINT Neck_virtual
						{
							OFFSET 0.000000 0.000000 0.000000
							CHANNELS 3 Xrotation Yrotation Zrotation
							JOINT Neck
							{
								OFFSET -0.003700 21.199493 -0.826900
								CHANNELS 3 Xrotation Yrotation Zrotation
								JOINT Head
								{
									OFFSET 0.000000 20.442200 4.834800
									CHANNELS 3 Xrotation Yrotation Zrotation
									JOINT HeadTop_End
									{
										OFFSET 0.000000 34.668396 4.968400
										CHANNELS 3 Xrotation Yrotation Zrotation
										End Site
										{
											OFFSET 0 0 0
										}
									}
								}
							}
						}
						JOINT LeftShoulder_virtual
						{
							OFFSET 0.000000 0.000000 0.000000
							CHANNELS 3 Xrotation Yrotation Zrotation
							JOINT LeftShoulder
							{
								OFFSET 3.288150 8.794197 -1.372250
								CHANNELS 3 Xrotation Yrotation Zrotation
								JOINT LeftShoulder_split
								{
									OFFSET 3.288150 8.794197 -1.372250
									CHANNELS 3 Xrotation Yrotation Zrotation
									JOINT LeftArm
									{
										OFFSET 11.953299 -2.279007 -0.146200
										CHANNELS 3 Xrotation Yrotation Zrotation
										JOINT LeftForeArm
										{
											OFFSET 18.448900 0.000000 0.000000
											CHANNELS 3 Xrotation Yrotation Zrotation
											JOINT LeftHand
											{
												OFFSET 29.527798 0.000000 0.000000
												CHANNELS 3 Xrotation Yrotation Zrotation
												End Site
												{
													OFFSET 0 0 0
												}
											}
										}
									}
								}
							}
						}
						JOINT RightShoulder_virtual
						{
							OFFSET 0.000000 0.000000 0.000000
							CHANNELS 3 Xrotation Yrotation Zrotation
							JOINT RightShoulder
							{
								OFFSET -3.249400 8.794197 -1.372250
								CHANNELS 3 Xrotation Yrotation Zrotation
								JOINT RightShoulder_split
								{
									OFFSET -3.249400 8.794197 -1.372250
									CHANNELS 3 Xrotation Yrotation Zrotation
									JOINT RightArm
									{
										OFFSET -11.953299 -2.279007 -0.146200
										CHANNELS 3 Xrotation Yrotation Zrotation
										JOINT RightForeArm
										{
											OFFSET -18.448900 0.000000 0.000000
											CHANNELS 3 Xrotation Yrotation Zrotation
											JOINT RightHand
											{
												OFFSET -29.527802 0.000000 0.000000
												CHANNELS 3 Xrotation Yrotation Zrotation
												End Site
												{
													OFFSET 0 0 0
												}
											}
										}
									}
								}
							}
						}
					}
				}
			}
		}
	}
}
MOTION
Frames: 4
Frame Time: 0.03333333
6.088127 85.926636 -10.719234 0.000000 0.000000 0.000000 -6.308343 18.498647 0.752667 -25.415895 -3.072276 14.762475 52.394586 -0.219180 0.262116 -15.528423 4.101250 -16.069849 -3.565110 -5.242769 2.462693 0.000000 0.000000 0.000000 -6.179139 17.232422 0.708390 -20.255515 -8.234711 -9.235302 51.315228 6.165267 -4.419302 -24.577307 -19.964976 18.443340 7.857549 10.239172 -29.684866 0.000000 0.000000 0.000000 -6.634273 23.414804 0.792502 14.056659 -0.778931 2.631816 4.559568 -5.694109 -0.432023 0.251779 -0.153778 0.179047 0.000000 0.000000 0.000000 6.279791 -3.221682 -0.713267 26.280235 19.560989 2.404642 -43.895566 19.088745 9.428069 0.000000 0.000000 0.000000 5.033575 -5.003740 -0.457152 3.701006 -0.025487 -12.434498 9.111312 -6.749741 -6.149004 -23.232479 -10.701563 -44.877017 57.113707 -55.160276 53.846305 0.000000 0.000000 0.000000 4.772447 -5.526592 -1.199850 3.968810 -8.205748 17.900538 11.123861 2.572210 8.729548 -25.505487 19.522205 62.279605 39.226381 85.050779 -43.462901 0.000000 0.000000 0.000000 
5.993388 85.898727 -10.599743 0.000000 0.000000 0.000000 -6.499513 18.173714 0.703316 -25.467718 -2.765214 14.912738 52.377210 -0.313307 0.353514 -15.948866 3.926347 -16.010496 -3.561587 -5.272302 2.675481 0.000000 0.000000 0.000000 -6.467977 17.150622 0.677622 -20.285964 -8.575676 -9.324833 51.458345 6.164203 -4.317460 -24.645238 -19.878173 18.289300 8.555070 10.119856 -29.780407 0.000000 0.000000 0.000000 -6.770279 23.377596 0.759972 14.376606 -0.800497 2.514642 4.674262 -5.515219 -0.107371 0.196232 -0.092366 0.136480 0.000000 0.000000 0.000000 6.135357 -3.048766 -0.568112 26.036625 19.326594 2.490636 -44.023301 17.048033 9.893610 0.000000 0.000000 0.000000 5.206047 -4.863356 -0.413232 3.960876 0.155818 -12.483421 8.948716 -4.828650 -6.601578 -24.313124 -11.440867 -47.769305 54.711137 -53.554055 51.528825 0.000000 0.000000 0.000000 4.946878 -5.247002 -1.024631 3.813996 -8.419420 17.100666 10.495469 0.393395 9.332038 -24.749472 20.557104 61.361156 23.945479 83.134617 -28.163091 0.000000 0.000000 0.000000 
5.945866 85.965759 -10.442024 0.000000 0.000000 0.000000 -6.808377 18.024680 0.653468 -25.556760 -2.453213 14.990542 52.575385 -0.410899 0.587832 -16.238032 3.655357 -16.356170 -3.351392 -5.267259 2.862620 0.000000 0.000000 0.000000 -6.801597 17.143479 0.627239 -20.095315 -9.040099 -9.390886 51.346009 6.285381 -4.264506 -24.392144 -19.683734 18.430890 8.556451 10.145011 -29.721145 0.000000 0.000000 0.000000 -7.103031 23.306352 0.653132 14.964813 -0.888608 2.050341 4.905585 -5.076888 0.204368 0.138056 -0.145784 -0.003985 0.000000 0.000000 0.000000 5.978318 -2.602421 -0.442460 25.107903 18.799544 2.829757 -43.722992 12.490922 9.908525 0.000000 0.000000 0.000000 5.373288 -4.504843 -0.404588 3.986003 0.097176 -12.168902 8.313505 -3.560435 -5.514612 -24.298198 -12.391236 -50.342719 50.548232 -52.498999 47.810156 0.000000 0.000000 0.000000 5.230978 -4.661728 -0.792733 3.691798 -8.134446 15.904825 8.132158 -0.472257 8.770725 -22.360018 21.183582 60.769962 16.206483 80.408327 -20.505225 0.000000 0.000000 0.000000 
5.956211 86.172630 -10.261555 0.000000 0.000000 0.000000 -7.185851 18.249241 0.694617 -25.510483 -2.159921 14.894880 52.670130 -0.346900 0.878319 -16.309097 3.415661 -16.833771 -3.080032 -5.230074 3.000945 0.000000 0.000000 0.000000 -7.016877 17.277163 0.612690 -19.499837 -9.528611 -9.375697 50.912558 6.421368 -4.244178 -24.152794 -19.464033 18.477687 8.008589 10.274833 -29.439833 0.000000 0.000000 0.000000 -7.584165 23.314070 0.531271 15.684701 -1.079961 1.330270 5.157262 -4.462221 0.431973 0.138480 -0.316384 -0.063320 0.000000 0.000000 0.000000 5.817416 -2.000456 -0.349186 23.739366 17.976042 3.309723 -42.828957 6.008943 9.285775 0.000000 0.000000 0.000000 5.442387 -3.965799 -0.417948 3.822694 -0.004469 -11.201454 7.748494 -3.159037 -3.369510 -23.172537 -13.883604 -51.551064 46.090588 -52.760520 43.943549 0.000000 0.000000 0.000000 5.541551 -3.917995 -0.577939 3.638251 -7.420405 14.441486 5.570289 -0.114719 7.492969 -17.827337 21.368419 59.811352 15.047151 79.225919 -19.195263 0.000000 0.000000 0.000000 
